<svg version="1.0" xmlns="http://www.w3.org/2000/svg" width="266.667" height="266.667" viewBox="0 0 200 200" fill="white"><path d="M31 34v27h54.4l-9.2 9.4-9.2 9.3v42.1l18.8.3c16.1.3 19.2.7 21.6 2.2 2.2 1.5 2.7 2.5 2.4 5-.5 5.1-5.8 7.2-18.3 7.1-12.6-.1-26.2-3.6-38.2-9.8l-8.5-4.4-1.8 4.2c-1 2.2-6.3 13.9-11.8 25.8l-10 21.7 3.2 2.1c15.5 9.5 43.1 16 68.6 16.2 22.3.1 38.3-3.2 53.5-11 9.6-5 22-17.4 26.3-26.3 8.7-18 8-39.7-1.9-55-4.3-6.7-13.3-14.8-21.1-18.9l-6.7-3.5 13.4-14 13.4-14 .1-21.3V7H31v27z"/></svg>