<svg version="1.0" xmlns="http://www.w3.org/2000/svg" width="266.667" height="266.667" viewBox="0 0 200 200"><path d="M144 13.7c-21.5 16.1-46.1 46.7-61.6 76.7l-6.2 11.9L72 96c-4.6-6.8-16.2-19.4-22.1-24-3.6-2.9-3.6-2.9-7.7-1.3L38 72.3l2.1 2.6c5.3 6.8 15.3 22.7 20.4 32.6 8.1 15.5 11.3 20.4 14.6 22 4.4 2.3 7.6 1.8 11.5-1.8 2.9-2.6 4.2-5.4 7.8-16.2 11.4-34.1 28.6-62.7 53.8-89l8.9-9.4-1.7-2.5c-.9-1.4-2.1-2.6-2.8-2.6-.6 0-4.5 2.6-8.6 5.7zM96.6 147.7l-3.5 7.1-6.3.7c-3.5.4-6.7 1-7.1 1.2-.5.3 1.4 2.9 4.3 5.8l5.1 5.2-1.2 6.7c-.6 3.7-.9 6.9-.6 7.2.3.3 3.3-.9 6.7-2.6l6.2-3.2 6 3.2c3.3 1.8 6.2 2.9 6.5 2.6.4-.3.1-3.6-.6-7.3l-1.2-6.6 5.1-5.2c2.9-2.9 4.8-5.5 4.3-5.8-.5-.3-3.7-.9-7.2-1.3l-6.4-.7-3.2-7-3.3-7.1-3.6 7.1zM53 158.9l-3.3 6.9-6.6.7c-3.6.4-6.9.9-7.3 1.1-.3.2 1.8 2.8 4.7 5.7l5.4 5.2-1.3 7.2c-.7 4-.9 7.3-.4 7.3.4 0 3.3-1.4 6.4-3.2l5.6-3.1 6.5 3.2c3.6 1.8 6.7 3 7 2.8.2-.3-.2-3.5-.8-7.1l-1.3-6.7 5.3-5.3c2.9-3 4.9-5.6 4.4-5.9-.5-.3-3.7-.9-7.1-1.3l-6.3-.7-3.5-6.8c-1.9-3.8-3.6-6.9-3.7-6.9-.2 0-1.8 3.1-3.7 6.9zM139.8 158.5l-3.3 7-7 1.1c-3.8.7-7.2 1.2-7.5 1.3-.2 0 2 2.5 4.9 5.5l5.4 5.5-1.1 6.7c-.6 3.8-1 7-.8 7.2.2.1 3.3-1.1 6.8-2.9l6.4-3.1 6.3 3.1c3.5 1.8 6.4 3.1 6.6 2.9.1-.2-.2-3.4-.8-7.1l-1-6.8 5.3-5.4c3-3 5.2-5.6 5-5.6-.3-.1-3.6-.6-7.5-1.3l-7-1.1-3.7-7-3.6-7-3.4 7z"/></svg>