<svg version="1.0" xmlns="http://www.w3.org/2000/svg" width="266.667" height="266.667" viewBox="0 0 200 200"><path d="M18.4 6.4C13.7 8.5 7.9 14.1 5.9 18.5c-2.6 5.7-2.4 13.8.5 20.1C11.8 50.3 26.3 55 38.1 48.9c13.6-6.9 16.3-27.1 5.1-37.7C37 5.5 25.7 3.3 18.4 6.4zM174.3 7c-4.4 2.6-6.7 7.3-6 12.3.7 5.4 3.5 8.9 8.5 10.7 3.7 1.3 4.7 1.3 8.4 0 13.5-4.8 10.1-25-4.2-25-1.9 0-4.9.9-6.7 2zM73 8.1C59.8 13.4 62.7 33 76.7 33c2.5 0 5.7-.7 7.3-1.6 8.6-5.1 7.7-19.1-1.5-23-3.9-1.6-6-1.7-9.5-.3zM106.9 11.9c-2 2-2.9 3.9-2.9 6.1 0 4.3 4.7 9 9 9 4.5 0 9-4.7 9-9.3 0-8-9.3-11.5-15.1-5.8zM136.4 25c-14.1 7.1-9.2 29.4 6.4 29.4 5.5 0 10.4-2.4 13.6-6.7 2.9-4 3-13.4 0-17.3-5.2-7-12.8-9.1-20-5.4zM94.1 38.6c-2.7 3.4-2.6 5 .4 7.9 4.3 4.4 10.5 2.1 10.5-3.9 0-6.4-7-9-10.9-4zM61.1 46.8c-3.7 2-7.1 7.3-7.1 11 0 10.3 11.6 16.6 20.1 10.9 6-4.1 7.7-11.3 3.9-17.4-3.6-6-10.6-7.9-16.9-4.5zM174 46.8c-4.4 3.6-1.7 11.2 4 11.2 5.6 0 8.3-8.2 3.8-11.4-2.9-2.1-5.1-2-7.8.2zM11 62.7C4.7 65 6.4 75 13.1 75c3 0 4.3-.9 5.8-3.7 1.6-3.1 1.4-4.1-1.4-6.8-2.4-2.5-3.6-2.8-6.5-1.8zM130 77v6h7V71h-7v6zM33.1 76.2c-2.8 1.4-5.4 3.8-7.3 6.7-2.6 4.1-2.9 5.3-2.6 11.2.3 5.4.9 7.3 3.1 10.3 8 10.4 24.2 10 31.3-.9 2.6-4 3.6-10.1 2.3-14.8-3.2-12.1-15.7-18-26.8-12.5zM87.9 89.6l-2.4 2.6 4.5 3.9 4.4 3.8 2.3-2.1c1.3-1.2 2.2-2.5 2.1-2.8-.2-.3-2.1-2.3-4.4-4.3L90.3 87l-2.4 2.6zM171.8 91.5l-3.7 4.2 2.2 2.2 2.3 2.1 4.2-4.3 4.2-4.3-2.8-2.1-2.7-2-3.7 4.2zM126.3 106.3l-6.1 12.4-13.4 1.8c-7.3 1-13.5 2-13.7 2.2-.3.2 4 4.8 9.4 10.3l9.9 10-2.1 13.2c-1.2 7.3-2 13.4-1.8 13.6.2.2 5.9-2.5 12.5-5.9l12.2-6.4 12 6.3c6.6 3.5 12.2 6.1 12.5 5.9.2-.3-.6-6.4-1.8-13.7l-2.3-13.1 9.9-9.9c5.5-5.5 9.7-10.1 9.4-10.3-.2-.2-6.4-1.2-13.7-2.2l-13.4-1.8-6.1-12.4c-3.4-6.7-6.4-12.3-6.7-12.3-.3 0-3.3 5.6-6.7 12.3zM14.5 120.4c-4.8 2.1-6.8 5.1-7.3 11-.4 5-.2 5.6 2.9 9.1 7.7 8.3 20.4 4.6 22.3-6.5.8-4.5-1.7-9.7-6.3-12.7-3.8-2.6-7.2-2.8-11.6-.9zM73 134v3h12v-6H73v3zM184.7 132.7c-.4.3-.7 1.9-.7 3.5 0 2.8.1 2.8 6 2.8h6v-7h-5.3c-3 0-5.7.3-6 .7zM46.2 136.3c-2.7 2.9-2.8 6.1-.2 8.7 4 4 11 1.1 11-4.5 0-3.1-3.3-6.5-6.3-6.5-1.3 0-3.3 1-4.5 2.3zM14.1 159.7c-1.9 1-4.8 3.5-6.5 5.6-5.5 6.9-4.5 19 2.1 24.9 5 4.6 13.6 6 20 3.3 5-2.1 7.2-4.2 9.4-9 3.7-8 1.3-17.8-5.6-23.1-4.8-3.7-14.1-4.5-19.4-1.7zM89.5 174.1l-3.7 4.1 2.3 2.4 2.3 2.4 4.3-4.2 4.3-4.2-2.2-2.3c-1.2-1.3-2.5-2.3-2.9-2.3-.3 0-2.3 1.8-4.4 4.1zM169.6 172.5c-.9 1.3-1.6 2.6-1.6 2.8 0 .2 1.8 1.8 4.1 3.6l4 3.3 2.4-2.2 2.4-2.3-4.2-3.8c-2.3-2.1-4.5-3.8-4.8-3.9-.4 0-1.4 1.1-2.3 2.5zM60.2 180.6c-4.5 3.1-1.5 11.4 4.2 11.4 2.5 0 6.6-4.1 6.6-6.5 0-2.3-4.1-6.5-6.4-6.5-1.2 0-3.2.7-4.4 1.6zM130 189v6h7v-12h-7v6z"/></svg>