<svg version="1.0" xmlns="http://www.w3.org/2000/svg" width="85.333" height="85.333" viewBox="0 0 64 64"><path d="M24.9 6.6c-.6.8-1.7 1.4-2.3 1.3-2.5-.3-3.6.2-3.6 1.6 0 .9-1.1 2.1-2.5 2.7-1.6.7-2.5 1.9-2.5 3.3 0 1.3-.6 2.8-1.4 3.4-1.7 1.4-1.6 11.5.2 13.3.6.6 1.2 2.3 1.2 3.6 0 1.5.7 2.6 1.9 2.9 1 .2 2.4 1.6 3 2.9.7 1.5 1.9 2.4 3.4 2.4 1.3 0 2.9.6 3.5 1.2 1.8 1.8 10.9 1.8 12.3.1.6-.7 2.2-1.3 3.5-1.3 1.6 0 2.8-.8 3.5-2.4.6-1.3 2-2.7 3-2.9 1.2-.3 1.9-1.4 1.9-2.9 0-1.3.6-3 1.2-3.6 1.8-1.8 1.9-11.9.2-13.3-.8-.6-1.4-2.1-1.4-3.4 0-1.4-.9-2.6-2.5-3.3-1.4-.6-2.5-1.8-2.5-2.7 0-1.4-1.2-2-3.4-1.6-.5.1-1.6-.5-2.5-1.2-2.2-2-12.6-2-14.2-.1zm14.9 7c6 3.9 8.1 13.7 4.2 19.9-5.5 8.8-19.9 8.4-24.6-.8-2.5-4.8-1.5-13 2.1-16.7 4.8-5 12.7-6 18.3-2.4z"/><path d="M30.5 20.9c-.3 1-1.7 2.2-3.1 2.5-2.5.7-2.6.8-.9 2.6 1 1.2 1.5 2.8 1.2 4-.5 1.9-.2 2.1 2.3 1.5 1.6-.4 3.8-.1 5 .5 1.9 1 2 .9 1.4-1.5-.4-1.8-.1-3.2 1.1-4.5 1.7-1.8 1.6-1.9-.9-2.6-1.4-.3-2.8-1.5-3.1-2.5-.4-1-1-1.9-1.5-1.9s-1.1.9-1.5 1.9zM17.2 50l-2.1 5.1 3.4-.7c3-.5 3.6-.3 4.6 2 .7 1.4 1.5 2.6 1.9 2.6.5 0 6-10.4 6-11.4 0-.2-.8-.2-1.8.1-1 .2-2.4-.3-3.1-1.1-.8-.9-2.6-1.6-4.1-1.6-2.3 0-3 .7-4.8 5zM37.9 46.6c-.7.8-2.1 1.3-3.1 1.1-1-.3-1.8-.3-1.8-.1 0 1 5.5 11.4 6 11.4.4 0 1.2-1.2 1.9-2.6 1-2.3 1.6-2.5 4.6-2l3.4.7-2.1-5.1c-1.8-4.3-2.5-5-4.8-5-1.5 0-3.3.7-4.1 1.6z"/></svg>