<svg version="1.0" xmlns="http://www.w3.org/2000/svg" width="266.667" height="266.667" viewBox="0 0 200 200"><path d="M160.5 17.6c-14.3 5.1-26.4 9.4-26.9 9.6-.5.2 3 2.9 7.7 5.9 4.7 2.9 8.6 5.8 8.7 6.3 0 1.4-12.4 15.7-21.7 24.7-25.5 24.9-54.7 42.4-89.6 53.8-6.8 2.2-14.3 4.3-16.7 4.7-3.6.6-4 .9-2.3 1.5 2.8 1 23.4-.6 33.9-2.6 36-6.8 78.2-29.7 109.5-59.3l9.5-9 7 5.9 6.9 5.8.3-14.5c.1-8 .1-20.7 0-28.3l-.3-13.7-26 9.2zM157.5 89.2c-.3.7-.4 24-.3 51.8l.3 50.5 14.8.3 14.7.3V88h-14.5c-10.7 0-14.7.3-15 1.2zM108.2 154.7l.3 36.8 15.8.3 15.7.3V118h-32l.2 36.7zM61 163.5V192h30v-57H61v28.5zM13 167v25h30v-50H13v25z"/></svg>