<svg version="1.0" xmlns="http://www.w3.org/2000/svg" width="266.667" height="266.667" viewBox="0 0 200 200"><path d="M87.3 12.4c-20.2 9.8-40.5 16.8-57.6 19.7-10 1.7-10.1 2-9.3 22.7 1.8 43.2 7.3 71 17.4 87.7 8.7 14.4 33.5 36.2 54.9 48.1l5.2 2.8 4.8-2.3c7-3.4 20.7-12.5 28.8-19.1 8.9-7.3 23.5-22.4 27-28.1 10.1-15.9 15.6-41.7 17.7-82.5 1.1-21.2 1-23.4-.5-25.7-1.1-1.8-2.9-2.8-5.4-3.2-17.3-2.6-36.8-9-57.2-18.6C106.3 10.6 99.7 8 98.5 8c-1.2 0-6.2 2-11.2 4.4zm23.8 6.5c20.1 9.5 39.6 16 56.2 18.6l3.7.6v14.2c0 33.8-5.6 66.1-14.5 83.7-7.3 14.4-30.6 36.1-51.3 47.7l-6.4 3.6-3.6-1.7c-10.9-5.2-28.6-19.1-41.8-32.8-7.1-7.3-10-11.3-13.3-17.9-8.1-16.5-12.9-42.7-13.8-76.5l-.6-20 8.9-1.8c16.9-3.2 37.1-10.3 54.2-19.1 4.8-2.4 9-4.4 9.3-4.4.3-.1 6.2 2.6 13 5.8z"/><path d="M94 28.5c-9.9 5.7-34.8 15-48.5 18.2l-7.8 1.8.7 15.5c1.1 27 5.9 52.6 12.1 65.5 4.9 10.2 20.6 25.8 37.5 37.4 4.7 3.2 9 6.1 9.6 6.4 1.3.8 15.4-8.7 26-17.4 8.3-6.9 18-17.6 21.8-24.2 7.2-12.4 13.6-47.4 13.6-75.3v-8.2l-3.7-.7c-11.1-2-36.3-10.9-49.1-17.4-6.8-3.5-8.6-3.7-12.2-1.6z"/></svg>