<svg xmlns="http://www.w3.org/2000/svg" width="90" height="87" fill="none"><g clip-path="url(#a)"><path fill="#BA181B" d="m85.736.429-17.579.08-17.58.082-5.582 6.127c-3.07 3.37-5.948 6.309-6.396 6.529-.448.22-1.704-.373-2.79-1.316-6.057-5.256-17.54-5.628-18.795-.609-.71 2.837 1.272 4.147 9.87 6.518 10.78 2.972 13.826 4.444 17.925 8.667 2.76 2.842 3.48 3.31 3.151 2.042-.9-3.465-.46-3.608 11.065-3.608 8.08 0 10.764.217 10.831.875.05.482.016 2.405-.07 4.275l-.16 3.4 3.733-3.794c4.39-4.462 6.457-5.5 12.105-6.079l4.187-.428V3.808l-1.957-1.69-1.958-1.69ZM.339 26.503l-.071 7.654-.071 7.655L2.05 40.03c1.02-.98 2.106-1.783 2.414-1.783.307 0 1.829 1.01 3.382 2.245 1.554 1.235 4.425 2.8 6.38 3.479 7.937 2.753 13.981.517 13.129-4.856-.326-2.053-2.476-3.117-10.979-5.435-6.865-1.872-10.87-3.539-14.293-5.949L.339 26.503Zm85.52 17.347c-5.075 0-7.379.824-10.396 3.72-4.529 4.345-4.628 4.801-4.882 22.718l-.23 16.283H90v-42.72h-4.14Zm-35.71.438c-.166-.032-.732.931-1.645 2.9-2.477 5.34-4.672 7.927-8.868 10.449-5.81 3.492-11.376 4.625-20.807 4.236-7.31-.301-11.903-1.254-17.618-3.653-1.135-.477-1.22.319-1.21 11.293.011 13.273.423 14.866 4.162 16.089 1.566.512 9.505.754 23.008.7l20.615-.08.383-18.21c.238-11.353.698-19.13 1.22-20.656.69-2.011.925-3.037.76-3.068Z"/></g><defs><clipPath id="a"><path fill="#fff" d="M0 .429h90v86.143H0z"/></clipPath></defs></svg>