<svg xmlns="http://www.w3.org/2000/svg" xml:space="preserve" width="128.985" height="123" viewBox="0 0 34.127 32.544"><path d="m100.359 81.608-6.666.03-6.666.032-2.117 2.314c-1.164 1.274-2.255 2.384-2.425 2.467-.17.083-.646-.14-1.058-.497-2.297-1.986-6.651-2.126-7.127-.23-.27 1.072.482 1.567 3.743 2.462 4.087 1.123 5.242 1.68 6.797 3.274 1.046 1.074 1.32 1.25 1.195.772-.342-1.31-.175-1.363 4.195-1.363 3.064 0 4.082.082 4.107.33.02.182.006.909-.026 1.615l-.06 1.285 1.414-1.433c1.665-1.686 2.449-2.078 4.59-2.297l1.588-.162v-7.322l-.742-.638zm-32.382 9.85-.027 2.893-.027 2.892.703-.674c.386-.37.798-.673.915-.673.117 0 .694.381 1.283.848.589.466 1.678 1.058 2.42 1.314 3.008 1.04 5.3.196 4.977-1.835-.123-.775-.938-1.177-4.163-2.053-2.603-.707-4.122-1.337-5.42-2.247zm32.429 6.555c-1.925 0-2.798.31-3.943 1.405-1.717 1.641-1.754 1.814-1.85 8.583l-.088 6.151H101.976v-16.14zm-13.541.165c-.063-.012-.278.352-.624 1.095-.94 2.018-1.772 2.995-3.363 3.948-2.203 1.32-4.314 1.747-7.89 1.6-2.772-.114-4.513-.473-6.68-1.38-.43-.18-.463.12-.46 4.267.005 5.014.161 5.616 1.579 6.078.594.193 3.604.285 8.724.264l7.817-.03.146-6.88c.09-4.288.264-7.227.463-7.803.261-.76.35-1.147.288-1.16z" style="fill:#000;stroke-width:.264583" transform="translate(-67.848 -81.608)"/></svg>