<svg width="70" height="67" viewBox="0 0 70 67" fill="none" xmlns="http://www.w3.org/2000/svg">
<g clip-path="url(#clip0_99_75)">
<path d="M66.6833 0L53.011 0.0627658L39.3376 0.126615L34.996 4.8918C32.6081 7.51321 30.3701 9.79869 30.0216 9.9698C29.673 10.1409 28.6962 9.67997 27.8508 8.94632C23.1402 4.85834 14.2091 4.56919 13.233 8.47289C12.6812 10.6796 14.2228 11.6985 20.9102 13.5424C29.2942 15.854 31.6632 16.9989 34.8518 20.2832C36.9976 22.4934 37.5587 22.857 37.3024 21.8716C36.6017 19.1765 36.9451 19.0651 45.9082 19.0651C52.192 19.0651 54.28 19.2338 54.3327 19.7459C54.3711 20.1204 54.345 21.6162 54.2776 23.0706L54.1535 25.7155L57.0567 22.7642C60.4709 19.2939 62.0789 18.4864 66.4723 18.0363L69.7285 17.7033V10.1655V2.62891L68.2063 1.31392L66.6833 0ZM0.263359 20.28L0.208243 26.2336L0.153128 32.1872L1.59466 30.8009C2.38751 30.0385 3.23265 29.4146 3.47185 29.4146C3.71104 29.4146 4.89456 30.2001 6.10265 31.1605C7.31075 32.1209 9.54417 33.3382 11.0654 33.866C17.2378 36.0076 21.9389 34.2688 21.2759 30.0891C21.0227 28.4927 19.3506 27.6653 12.7369 25.8623C7.39712 24.4065 4.28253 23.1099 1.62011 21.2354L0.263359 20.28ZM66.7798 33.7724C62.8321 33.7724 61.0403 34.413 58.6934 36.6651C55.1709 40.0453 55.0941 40.3999 54.8966 54.3354L54.7176 67H62.3588H70V50.3862V33.7724H66.7798ZM39.0047 34.1128C38.876 34.0883 38.4355 34.8372 37.7254 36.3683C35.7986 40.5222 34.0917 42.534 30.8282 44.4954C26.3085 47.2118 21.9798 48.093 14.6448 47.7903C8.95875 47.5556 5.38704 46.8147 0.941725 44.9486C0.058913 44.578 -0.00689611 45.1967 0.000487992 53.7321C0.009513 64.0562 0.329651 65.2951 3.2376 66.2457C4.45621 66.644 10.631 66.832 21.1328 66.7904L37.1668 66.7276L37.4646 52.565C37.65 43.7347 38.0075 37.6856 38.4143 36.4991C38.9506 34.935 39.1334 34.1373 39.0047 34.1128Z" fill="white"/>
</g>
<defs>
<clipPath id="clip0_99_75">
<rect width="70" height="67" fill="white"/>
</clipPath>
</defs>
</svg>
